<?xml version="1.0" encoding="UTF-8"?>
<svg xmlns="http://www.w3.org/2000/svg" viewBox="0 0 52.41 38.58">
  <defs>
    <style>
      .cls-1 {
        fill: #161716;
      }

      .cls-2 {
        fill: #ede4c3;
      }
    </style>
  </defs>
  <g id="Layer_2" data-name="Layer 2">
    <path class="cls-2" d="M7.66,4.85s.19-2.97,4.36-3.78c0,0,2.69-.46,4.43,2.16,0,0,1.45,3.76,2.45,4.46,0,0,7.68,3.95,9.98,10,0,0,9.23,9,10.22,9.03,0,0,.85.54-.1.7,0,0-1.6-.32-2.08-.73s1.43,1.19,1.43,1.19c0,0,.27.76-.07.65s-4.14-2.65-4.14-2.65c0,0,10.36,9.98,12.91,10.92s-.1.87-.1.87c0,0,.85,1.19-.77.84s-6.3-3.76-6.3-3.76c0,0-5.04-1.46-6.76-2.6,0,0-.97-.62-2.81-.68,0,0-.75.59-1.43.65l-.68.05s-2.57,2.03-6.59,1.32-7.6-2.87-7.6-2.87c0,0-5.08-3.89-5.86-10.54s-.48-11.73-.48-11.73v-3.51Z"/>
    <path class="cls-2" d="M7.78,5.08s-1.43.83-2.03,1.87c0,0,1.94.91,1.91,1.68s.13-3.55.13-3.55Z"/>
    <path class="cls-2" d="M16.63,4.25s2.38,3.14,2.67,3.67-2.82-1.32-2.82-1.32l.15-2.35Z"/>
  </g>
  <g id="Layer_3" data-name="Layer 3">
    <path class="cls-1" d="M9.41,5.77s1.89-3.58,4.1,0c0,0-2.06.62-2.05,2.37,0,0-.1-2.18-2.05-2.37Z"/>
    <path class="cls-1" d="M13.52,5.77s-1.89-3.58-4.1,0c0,0,2.06.62,2.05,2.37,0,0,.1-2.18,2.05-2.37Z"/>
    <path class="cls-1" d="M16.48,10.09s-1.46,23.7,17.64,15.8c0,0-14.48,6.03-17.64-15.8Z"/>
    <path class="cls-1" d="M7.66,5.15s.56.2.48,1.01c0,0-.12-.65-.48-1.01Z"/>
    <path class="cls-1" d="M11.37,9.78s.38,2.65-1.96,2.45c0,0,1.88,0,1.98,1.66,0,0-.02-1.78,1.48-1.62,0,0-1.46.54-1.5-2.49Z"/>
    <path class="cls-1" d="M11.37,12.83s.38,2.65-1.96,2.45c0,0,1.88,0,1.98,1.66,0,0-.02-1.78,1.48-1.62,0,0-1.46.54-1.5-2.49Z"/>
    <path class="cls-1" d="M11.37,15.64s.38,2.65-1.96,2.45c0,0,1.88,0,1.98,1.66,0,0-.02-1.78,1.48-1.62,0,0-1.46.54-1.5-2.49Z"/>
    <path class="cls-1" d="M11.37,18.69s.38,2.65-1.96,2.45c0,0,1.88,0,1.98,1.66,0,0-.02-1.78,1.48-1.62,0,0-1.46.54-1.5-2.49Z"/>
    <path class="cls-1" d="M39.86,34.76s-5.65-3.26-6.31-5.04c0,0,.81,2.38,6.31,5.04Z"/>
    <path class="cls-1" d="M46.93,37.68l-11.93-9.1s10.81,9.1,11.37,9.1h.56Z"/>
    <path class="cls-1" d="M36.91,26.7s-12.29-7.86-13.31-11.06c0,0,8.67,9.02,13.31,11.06Z"/>
    <path class="cls-1" d="M21.35,12.14s1.68,2.35.22,3.81c0,0,1.25-1.1,2.28.14,0,0-.77-1.76.12-2.27,0,0-1.23.67-2.61-1.68Z"/>
  </g>
</svg>